<?xml version="1.0" standalone="no"?>
<svg xmlns:xlink="http://www.w3.org/1999/xlink" id="wave" style="transform:rotate(0deg); transition: 0.3s" viewBox="0 0 1440 340" version="1.1" xmlns="http://www.w3.org/2000/svg"><defs><linearGradient id="sw-gradient-0" x1="0" x2="0" y1="1" y2="0"><stop stop-color="rgba(220, 53, 69, 1)" offset="0%"/><stop stop-color="rgba(220, 53, 69, 1)" offset="100%"/></linearGradient></defs><path style="transform:translate(0, 0px); opacity:1" fill="url(#sw-gradient-0)" d="M0,170L80,192.7C160,215,320,261,480,255C640,249,800,193,960,153C1120,113,1280,91,1440,79.3C1600,68,1760,68,1920,96.3C2080,125,2240,181,2400,192.7C2560,204,2720,170,2880,164.3C3040,159,3200,181,3360,187C3520,193,3680,181,3840,187C4000,193,4160,215,4320,215.3C4480,215,4640,193,4800,158.7C4960,125,5120,79,5280,56.7C5440,34,5600,34,5760,68C5920,102,6080,170,6240,198.3C6400,227,6560,215,6720,215.3C6880,215,7040,227,7200,215.3C7360,204,7520,170,7680,153C7840,136,8000,136,8160,113.3C8320,91,8480,45,8640,22.7C8800,0,8960,0,9120,0C9280,0,9440,0,9600,5.7C9760,11,9920,23,10080,56.7C10240,91,10400,147,10560,141.7C10720,136,10880,68,11040,62.3C11200,57,11360,113,11440,141.7L11520,170L11520,340L11440,340C11360,340,11200,340,11040,340C10880,340,10720,340,10560,340C10400,340,10240,340,10080,340C9920,340,9760,340,9600,340C9440,340,9280,340,9120,340C8960,340,8800,340,8640,340C8480,340,8320,340,8160,340C8000,340,7840,340,7680,340C7520,340,7360,340,7200,340C7040,340,6880,340,6720,340C6560,340,6400,340,6240,340C6080,340,5920,340,5760,340C5600,340,5440,340,5280,340C5120,340,4960,340,4800,340C4640,340,4480,340,4320,340C4160,340,4000,340,3840,340C3680,340,3520,340,3360,340C3200,340,3040,340,2880,340C2720,340,2560,340,2400,340C2240,340,2080,340,1920,340C1760,340,1600,340,1440,340C1280,340,1120,340,960,340C800,340,640,340,480,340C320,340,160,340,80,340L0,340Z"/><defs><linearGradient id="sw-gradient-1" x1="0" x2="0" y1="1" y2="0"><stop stop-color="rgba(255, 255, 255, 1)" offset="0%"/><stop stop-color="rgba(255, 255, 255, 1)" offset="100%"/></linearGradient></defs><path style="transform:translate(0, 50px); opacity:0.9" fill="url(#sw-gradient-1)" d="M0,68L80,96.3C160,125,320,181,480,198.3C640,215,800,193,960,158.7C1120,125,1280,79,1440,90.7C1600,102,1760,170,1920,198.3C2080,227,2240,215,2400,175.7C2560,136,2720,68,2880,56.7C3040,45,3200,91,3360,136C3520,181,3680,227,3840,221C4000,215,4160,159,4320,136C4480,113,4640,125,4800,158.7C4960,193,5120,249,5280,249.3C5440,249,5600,193,5760,181.3C5920,170,6080,204,6240,221C6400,238,6560,238,6720,232.3C6880,227,7040,215,7200,192.7C7360,170,7520,136,7680,147.3C7840,159,8000,215,8160,209.7C8320,204,8480,136,8640,136C8800,136,8960,204,9120,238C9280,272,9440,272,9600,249.3C9760,227,9920,181,10080,153C10240,125,10400,113,10560,113.3C10720,113,10880,125,11040,141.7C11200,159,11360,181,11440,192.7L11520,204L11520,340L11440,340C11360,340,11200,340,11040,340C10880,340,10720,340,10560,340C10400,340,10240,340,10080,340C9920,340,9760,340,9600,340C9440,340,9280,340,9120,340C8960,340,8800,340,8640,340C8480,340,8320,340,8160,340C8000,340,7840,340,7680,340C7520,340,7360,340,7200,340C7040,340,6880,340,6720,340C6560,340,6400,340,6240,340C6080,340,5920,340,5760,340C5600,340,5440,340,5280,340C5120,340,4960,340,4800,340C4640,340,4480,340,4320,340C4160,340,4000,340,3840,340C3680,340,3520,340,3360,340C3200,340,3040,340,2880,340C2720,340,2560,340,2400,340C2240,340,2080,340,1920,340C1760,340,1600,340,1440,340C1280,340,1120,340,960,340C800,340,640,340,480,340C320,340,160,340,80,340L0,340Z"/></svg>