<?xml version="1.0" standalone="no"?>
<svg xmlns:xlink="http://www.w3.org/1999/xlink" id="wave" style="transform:rotate(0deg); transition: 0.3s" viewBox="0 0 1440 210" version="1.1" xmlns="http://www.w3.org/2000/svg"><defs><linearGradient id="sw-gradient-0" x1="0" x2="0" y1="1" y2="0"><stop stop-color="rgba(255, 255, 255, 1)" offset="0%"/><stop stop-color="rgba(255, 255, 255, 1)" offset="100%"/></linearGradient></defs><path style="transform:translate(0, 0px); opacity:1" fill="url(#sw-gradient-0)" d="M0,84L80,91C160,98,320,112,480,112C640,112,800,98,960,80.5C1120,63,1280,42,1440,35C1600,28,1760,35,1920,52.5C2080,70,2240,98,2400,115.5C2560,133,2720,140,2880,136.5C3040,133,3200,119,3360,119C3520,119,3680,133,3840,126C4000,119,4160,91,4320,80.5C4480,70,4640,77,4800,66.5C4960,56,5120,28,5280,31.5C5440,35,5600,70,5760,98C5920,126,6080,147,6240,129.5C6400,112,6560,56,6720,28C6880,0,7040,0,7200,3.5C7360,7,7520,14,7680,28C7840,42,8000,63,8160,80.5C8320,98,8480,112,8640,129.5C8800,147,8960,168,9120,178.5C9280,189,9440,189,9600,161C9760,133,9920,77,10080,63C10240,49,10400,77,10560,94.5C10720,112,10880,119,11040,115.5C11200,112,11360,98,11440,91L11520,84L11520,210L11440,210C11360,210,11200,210,11040,210C10880,210,10720,210,10560,210C10400,210,10240,210,10080,210C9920,210,9760,210,9600,210C9440,210,9280,210,9120,210C8960,210,8800,210,8640,210C8480,210,8320,210,8160,210C8000,210,7840,210,7680,210C7520,210,7360,210,7200,210C7040,210,6880,210,6720,210C6560,210,6400,210,6240,210C6080,210,5920,210,5760,210C5600,210,5440,210,5280,210C5120,210,4960,210,4800,210C4640,210,4480,210,4320,210C4160,210,4000,210,3840,210C3680,210,3520,210,3360,210C3200,210,3040,210,2880,210C2720,210,2560,210,2400,210C2240,210,2080,210,1920,210C1760,210,1600,210,1440,210C1280,210,1120,210,960,210C800,210,640,210,480,210C320,210,160,210,80,210L0,210Z"/></svg>