<?xml version="1.0" standalone="no"?>
<svg xmlns:xlink="http://www.w3.org/1999/xlink" id="wave" style="transform:rotate(0deg); transition: 0.3s" viewBox="0 0 1440 280" version="1.1" xmlns="http://www.w3.org/2000/svg"><defs><linearGradient id="sw-gradient-0" x1="0" x2="0" y1="1" y2="0"><stop stop-color="rgba(220, 53, 69, 1)" offset="0%"/><stop stop-color="rgba(220, 53, 69, 1)" offset="100%"/></linearGradient></defs><path style="transform:translate(0, 0px); opacity:1" fill="url(#sw-gradient-0)" d="M0,28L60,32.7C120,37,240,47,360,74.7C480,103,600,149,720,172.7C840,196,960,196,1080,163.3C1200,131,1320,65,1440,51.3C1560,37,1680,75,1800,116.7C1920,159,2040,205,2160,219.3C2280,233,2400,215,2520,196C2640,177,2760,159,2880,154C3000,149,3120,159,3240,140C3360,121,3480,75,3600,70C3720,65,3840,103,3960,102.7C4080,103,4200,65,4320,70C4440,75,4560,121,4680,116.7C4800,112,4920,56,5040,28C5160,0,5280,0,5400,14C5520,28,5640,56,5760,88.7C5880,121,6000,159,6120,149.3C6240,140,6360,84,6480,84C6600,84,6720,140,6840,154C6960,168,7080,140,7200,144.7C7320,149,7440,187,7560,186.7C7680,187,7800,149,7920,135.3C8040,121,8160,131,8280,112C8400,93,8520,47,8580,23.3L8640,0L8640,280L8580,280C8520,280,8400,280,8280,280C8160,280,8040,280,7920,280C7800,280,7680,280,7560,280C7440,280,7320,280,7200,280C7080,280,6960,280,6840,280C6720,280,6600,280,6480,280C6360,280,6240,280,6120,280C6000,280,5880,280,5760,280C5640,280,5520,280,5400,280C5280,280,5160,280,5040,280C4920,280,4800,280,4680,280C4560,280,4440,280,4320,280C4200,280,4080,280,3960,280C3840,280,3720,280,3600,280C3480,280,3360,280,3240,280C3120,280,3000,280,2880,280C2760,280,2640,280,2520,280C2400,280,2280,280,2160,280C2040,280,1920,280,1800,280C1680,280,1560,280,1440,280C1320,280,1200,280,1080,280C960,280,840,280,720,280C600,280,480,280,360,280C240,280,120,280,60,280L0,280Z"/></svg>